<svg xmlns="http://www.w3.org/2000/svg" xmlns:xlink="http://www.w3.org/1999/xlink" width="300" zoomAndPan="magnify" viewBox="0 0 224.87999 52.499999" height="70" preserveAspectRatio="xMidYMid meet" version="1.0"><defs><clipPath id="c2e34ed88e"><path d="M 94.257812 25 L 108 25 L 108 41 L 94.257812 41 Z M 94.257812 25 " clip-rule="nonzero"/></clipPath><clipPath id="f490fe310e"><path d="M 94.257812 9 L 108 9 L 108 25 L 94.257812 25 Z M 94.257812 9 " clip-rule="nonzero"/></clipPath><clipPath id="1684811592"><path d="M 109 5.199219 L 130.660156 5.199219 L 130.660156 25 L 109 25 Z M 109 5.199219 " clip-rule="nonzero"/></clipPath><clipPath id="f6c37a8e30"><path d="M 109 25 L 130.660156 25 L 130.660156 44.574219 L 109 44.574219 Z M 109 25 " clip-rule="nonzero"/></clipPath><clipPath id="172a16ec91"><path d="M 20.582031 11.875 L 74 11.875 L 74 37.878906 L 20.582031 37.878906 Z M 20.582031 11.875 " clip-rule="nonzero"/></clipPath><clipPath id="ec2f289dd4"><path d="M 157.160156 7.574219 L 192.078125 7.574219 L 192.078125 42.492188 L 157.160156 42.492188 Z M 157.160156 7.574219 " clip-rule="nonzero"/></clipPath></defs><g clip-path="url(#c2e34ed88e)"><path fill="#0795ff" d="M 95.273438 37.796875 L 107.429688 40.179688 L 107.429688 25.703125 L 94.324219 25.703125 L 94.324219 36.691406 C 94.324219 36.96875 94.414062 37.207031 94.59375 37.417969 C 94.773438 37.628906 95 37.753906 95.273438 37.796875 Z M 95.273438 37.796875 " fill-opacity="1" fill-rule="nonzero"/></g><g clip-path="url(#f490fe310e)"><path fill="#156cdd" d="M 94.324219 24.070312 L 107.429688 24.070312 L 107.429688 9.585938 L 95.273438 11.980469 C 95 12.023438 94.773438 12.148438 94.59375 12.359375 C 94.414062 12.566406 94.324219 12.808594 94.324219 13.082031 Z M 94.324219 24.070312 " fill-opacity="1" fill-rule="nonzero"/></g><g clip-path="url(#1684811592)"><path fill="#0795ff" d="M 109.476562 24.070312 L 130.589844 24.070312 L 130.589844 6.425781 C 130.597656 6.25 130.566406 6.082031 130.492188 5.925781 C 130.421875 5.765625 130.320312 5.628906 130.183594 5.515625 C 130.046875 5.40625 129.894531 5.328125 129.722656 5.285156 C 129.550781 5.246094 129.378906 5.242188 129.207031 5.28125 L 109.476562 9.1875 Z M 109.476562 24.070312 " fill-opacity="1" fill-rule="nonzero"/></g><g clip-path="url(#f6c37a8e30)"><path fill="#156cdd" d="M 109.476562 40.589844 L 129.207031 44.492188 C 129.378906 44.53125 129.550781 44.53125 129.722656 44.488281 C 129.894531 44.449219 130.046875 44.371094 130.183594 44.257812 C 130.320312 44.148438 130.421875 44.011719 130.492188 43.851562 C 130.566406 43.691406 130.597656 43.523438 130.589844 43.351562 L 130.589844 25.703125 L 109.476562 25.703125 Z M 109.476562 40.589844 " fill-opacity="1" fill-rule="nonzero"/></g><g clip-path="url(#172a16ec91)"><path fill="#ffffff" d="M 20.914062 37.464844 L 25.320312 37.464844 L 25.320312 19.011719 L 20.914062 19.011719 Z M 23.109375 16.59375 C 24.488281 16.59375 25.570312 15.546875 25.570312 14.242188 C 25.570312 12.921875 24.488281 11.875 23.109375 11.875 C 21.746094 11.875 20.664062 12.921875 20.664062 14.242188 C 20.664062 15.546875 21.746094 16.59375 23.109375 16.59375 Z M 40 11.925781 C 32.546875 11.925781 27.871094 16.921875 27.871094 24.914062 C 27.871094 32.902344 32.546875 37.882812 40 37.882812 C 47.4375 37.882812 52.109375 32.902344 52.109375 24.914062 C 52.109375 16.921875 47.4375 11.925781 40 11.925781 Z M 40 15.757812 C 44.550781 15.757812 47.453125 19.308594 47.453125 24.914062 C 47.453125 30.5 44.550781 34.050781 40 34.050781 C 35.433594 34.050781 32.546875 30.5 32.546875 24.914062 C 32.546875 19.308594 35.433594 15.757812 40 15.757812 Z M 53.96875 30.398438 C 54.164062 35.027344 58.023438 37.882812 63.902344 37.882812 C 70.082031 37.882812 73.976562 34.890625 73.976562 30.117188 C 73.976562 26.375 71.78125 24.269531 66.59375 23.101562 L 63.65625 22.441406 C 60.523438 21.710938 59.230469 20.734375 59.230469 19.066406 C 59.230469 16.976562 61.175781 15.582031 64.0625 15.582031 C 66.984375 15.582031 68.984375 16.992188 69.199219 19.34375 L 73.550781 19.34375 C 73.445312 14.921875 69.730469 11.929688 64.097656 11.929688 C 58.539062 11.929688 54.589844 14.9375 54.589844 19.394531 C 54.589844 22.980469 56.820312 25.210938 61.53125 26.269531 L 64.839844 27.039062 C 68.0625 27.785156 69.375 28.832031 69.375 30.640625 C 69.375 32.730469 67.230469 34.226562 64.152344 34.226562 C 61.035156 34.226562 58.679688 32.710938 58.398438 30.398438 Z M 53.96875 30.398438 " fill-opacity="1" fill-rule="nonzero"/></g><g clip-path="url(#ec2f289dd4)"><path fill="#a4c639" d="M 162.398438 7.574219 L 186.839844 7.574219 C 187.183594 7.574219 187.523438 7.609375 187.863281 7.675781 C 188.199219 7.742188 188.527344 7.84375 188.84375 7.976562 C 189.160156 8.105469 189.464844 8.269531 189.75 8.457031 C 190.035156 8.648438 190.300781 8.867188 190.542969 9.109375 C 190.785156 9.351562 191.003906 9.617188 191.195312 9.902344 C 191.386719 10.191406 191.546875 10.492188 191.679688 10.808594 C 191.808594 11.128906 191.910156 11.453125 191.976562 11.792969 C 192.042969 12.128906 192.078125 12.46875 192.078125 12.8125 L 192.078125 37.253906 C 192.078125 37.601562 192.042969 37.941406 191.976562 38.277344 C 191.910156 38.613281 191.808594 38.941406 191.679688 39.261719 C 191.546875 39.578125 191.386719 39.878906 191.195312 40.164062 C 191.003906 40.453125 190.785156 40.714844 190.542969 40.960938 C 190.300781 41.203125 190.035156 41.417969 189.75 41.609375 C 189.464844 41.800781 189.160156 41.964844 188.84375 42.09375 C 188.527344 42.226562 188.199219 42.324219 187.863281 42.394531 C 187.523438 42.460938 187.183594 42.492188 186.839844 42.492188 L 162.398438 42.492188 C 162.054688 42.492188 161.710938 42.460938 161.375 42.394531 C 161.039062 42.324219 160.710938 42.226562 160.394531 42.09375 C 160.074219 41.964844 159.773438 41.800781 159.488281 41.609375 C 159.203125 41.417969 158.9375 41.203125 158.695312 40.960938 C 158.449219 40.714844 158.234375 40.453125 158.042969 40.164062 C 157.851562 39.878906 157.691406 39.578125 157.558594 39.261719 C 157.425781 38.941406 157.328125 38.613281 157.261719 38.277344 C 157.191406 37.941406 157.160156 37.601562 157.160156 37.253906 L 157.160156 12.8125 C 157.160156 12.46875 157.191406 12.128906 157.261719 11.792969 C 157.328125 11.453125 157.425781 11.128906 157.558594 10.808594 C 157.691406 10.492188 157.851562 10.191406 158.042969 9.902344 C 158.234375 9.617188 158.449219 9.351562 158.695312 9.109375 C 158.9375 8.867188 159.203125 8.648438 159.488281 8.457031 C 159.773438 8.269531 160.074219 8.105469 160.394531 7.976562 C 160.710938 7.84375 161.039062 7.742188 161.375 7.675781 C 161.710938 7.609375 162.054688 7.574219 162.398438 7.574219 Z M 162.398438 7.574219 " fill-opacity="1" fill-rule="nonzero"/></g><path stroke-linecap="round" transform="matrix(0.0681981, 0, 0, 0.0681981, 157.159734, 7.576006)" fill-opacity="1" fill="#000000" fill-rule="nonzero" stroke-linejoin="miter" d="M 107.001408 212.016762 L 107.001408 317.980973 M 405.992315 212.016762 L 405.992315 317.980973 M 298.997102 384.022451 L 298.997102 439.983009 M 213.996622 384.022451 L 213.996622 439.983009 " stroke="#ffffff" stroke-width="58" stroke-opacity="1" stroke-miterlimit="4"/><path stroke-linecap="round" transform="matrix(0.0681981, 0, 0, 0.0681981, 157.159734, 7.576006)" fill-opacity="1" fill="#000000" fill-rule="nonzero" stroke-linejoin="miter" d="M 202.999255 88.009998 L 185.987703 55.991623 M 309.020743 88.009998 L 327.00602 55.991623 " stroke="#ffffff" stroke-width="8" stroke-opacity="1" stroke-miterlimit="4"/><path fill="#ffffff" d="M 174.6875 12.757812 C 169.503906 12.757812 166.84375 16.851562 166.84375 19.917969 L 182.460938 19.917969 C 182.460938 16.714844 179.597656 12.828125 174.6875 12.757812 Z M 166.84375 20.601562 L 166.84375 31.785156 C 166.84375 32.878906 167.730469 33.765625 168.753906 33.765625 L 180.484375 33.765625 C 181.574219 33.765625 182.460938 32.878906 182.460938 31.785156 L 182.460938 20.601562 Z M 166.84375 20.601562 " fill-opacity="1" fill-rule="nonzero"/><path fill="#a4c639" d="M 171.6875 16.441406 C 171.6875 16.609375 171.625 16.757812 171.507812 16.875 C 171.386719 16.996094 171.242188 17.054688 171.070312 17.054688 C 170.902344 17.054688 170.757812 16.996094 170.636719 16.875 C 170.519531 16.757812 170.457031 16.609375 170.457031 16.441406 C 170.457031 16.273438 170.519531 16.128906 170.636719 16.007812 C 170.757812 15.886719 170.902344 15.828125 171.070312 15.828125 C 171.242188 15.828125 171.386719 15.886719 171.507812 16.007812 C 171.625 16.128906 171.6875 16.273438 171.6875 16.441406 Z M 171.6875 16.441406 " fill-opacity="1" fill-rule="nonzero"/><path fill="#a4c639" d="M 178.847656 16.441406 C 178.847656 16.609375 178.785156 16.757812 178.667969 16.875 C 178.546875 16.996094 178.402344 17.054688 178.234375 17.054688 C 178.0625 17.054688 177.917969 16.996094 177.800781 16.875 C 177.679688 16.757812 177.621094 16.609375 177.621094 16.441406 C 177.621094 16.273438 177.679688 16.128906 177.800781 16.007812 C 177.917969 15.886719 178.0625 15.828125 178.234375 15.828125 C 178.402344 15.828125 178.546875 15.886719 178.667969 16.007812 C 178.785156 16.128906 178.847656 16.273438 178.847656 16.441406 Z M 178.847656 16.441406 " fill-opacity="1" fill-rule="nonzero"/></svg>