<svg xmlns="http://www.w3.org/2000/svg" xmlns:xlink="http://www.w3.org/1999/xlink" width="300" zoomAndPan="magnify" viewBox="0 0 224.87999 52.499999" height="70" preserveAspectRatio="xMidYMid meet" version="1.0"><defs><g/></defs><g fill="#ffffff" fill-opacity="1"><g transform="translate(19.063887, 30.091006)"><g><path d="M 11.484375 0 L 11.453125 -6.0625 L 8.5 -1.125 L 7.0625 -1.125 L 4.140625 -5.90625 L 4.140625 0 L 1.140625 0 L 1.140625 -11.453125 L 3.8125 -11.453125 L 7.84375 -4.84375 L 11.765625 -11.453125 L 14.421875 -11.453125 L 14.46875 0 Z M 11.484375 0 "/></g></g></g><g fill="#ffffff" fill-opacity="1"><g transform="translate(34.666208, 30.091006)"><g><path d="M 6.921875 0.234375 C 5.710938 0.234375 4.625 -0.0195312 3.65625 -0.53125 C 2.6875 -1.050781 1.925781 -1.765625 1.375 -2.671875 C 0.832031 -3.578125 0.5625 -4.59375 0.5625 -5.71875 C 0.5625 -6.851562 0.832031 -7.875 1.375 -8.78125 C 1.925781 -9.6875 2.6875 -10.394531 3.65625 -10.90625 C 4.625 -11.425781 5.710938 -11.6875 6.921875 -11.6875 C 8.128906 -11.6875 9.210938 -11.425781 10.171875 -10.90625 C 11.140625 -10.394531 11.898438 -9.6875 12.453125 -8.78125 C 13.003906 -7.875 13.28125 -6.851562 13.28125 -5.71875 C 13.28125 -4.59375 13.003906 -3.578125 12.453125 -2.671875 C 11.898438 -1.765625 11.140625 -1.050781 10.171875 -0.53125 C 9.210938 -0.0195312 8.128906 0.234375 6.921875 0.234375 Z M 6.921875 -2.453125 C 7.492188 -2.453125 8.015625 -2.585938 8.484375 -2.859375 C 8.953125 -3.128906 9.320312 -3.515625 9.59375 -4.015625 C 9.875 -4.515625 10.015625 -5.082031 10.015625 -5.71875 C 10.015625 -6.363281 9.875 -6.929688 9.59375 -7.421875 C 9.320312 -7.921875 8.953125 -8.304688 8.484375 -8.578125 C 8.015625 -8.859375 7.492188 -9 6.921875 -9 C 6.335938 -9 5.8125 -8.859375 5.34375 -8.578125 C 4.875 -8.304688 4.503906 -7.921875 4.234375 -7.421875 C 3.960938 -6.929688 3.828125 -6.363281 3.828125 -5.71875 C 3.828125 -5.082031 3.960938 -4.515625 4.234375 -4.015625 C 4.503906 -3.515625 4.875 -3.128906 5.34375 -2.859375 C 5.8125 -2.585938 6.335938 -2.453125 6.921875 -2.453125 Z M 6.921875 -2.453125 "/></g></g></g><g fill="#ffffff" fill-opacity="1"><g transform="translate(48.502221, 30.091006)"><g><path d="M 6.15625 -3.046875 L 4.390625 -3.046875 L 4.390625 0 L 1.140625 0 L 1.140625 -11.453125 L 6.375 -11.453125 C 7.414062 -11.453125 8.316406 -11.28125 9.078125 -10.9375 C 9.835938 -10.59375 10.425781 -10.097656 10.84375 -9.453125 C 11.257812 -8.816406 11.46875 -8.070312 11.46875 -7.21875 C 11.46875 -6.382812 11.273438 -5.660156 10.890625 -5.046875 C 10.503906 -4.429688 9.953125 -3.945312 9.234375 -3.59375 L 11.703125 0 L 8.234375 0 Z M 8.203125 -7.21875 C 8.203125 -7.75 8.03125 -8.160156 7.6875 -8.453125 C 7.351562 -8.753906 6.851562 -8.90625 6.1875 -8.90625 L 4.390625 -8.90625 L 4.390625 -5.546875 L 6.1875 -5.546875 C 6.851562 -5.546875 7.351562 -5.6875 7.6875 -5.96875 C 8.03125 -6.257812 8.203125 -6.675781 8.203125 -7.21875 Z M 8.203125 -7.21875 "/></g></g></g><g fill="#ffffff" fill-opacity="1"><g transform="translate(60.604647, 30.091006)"><g><path d="M 10.34375 -2.5 L 10.34375 0 L 1.140625 0 L 1.140625 -11.453125 L 10.125 -11.453125 L 10.125 -8.953125 L 4.359375 -8.953125 L 4.359375 -7.015625 L 9.4375 -7.015625 L 9.4375 -4.59375 L 4.359375 -4.59375 L 4.359375 -2.5 Z M 10.34375 -2.5 "/></g></g></g><g fill="#ffffff" fill-opacity="1"><g transform="translate(71.594964, 30.091006)"><g/></g></g><g fill="#ff47ff" fill-opacity="1"><g transform="translate(76.352878, 30.091006)"><g><path d="M 6.859375 0.265625 C 5.640625 0.265625 4.546875 0.0078125 3.578125 -0.5 C 2.609375 -1.007812 1.847656 -1.71875 1.296875 -2.625 C 0.742188 -3.53125 0.46875 -4.5625 0.46875 -5.71875 C 0.46875 -6.875 0.742188 -7.90625 1.296875 -8.8125 C 1.847656 -9.726562 2.609375 -10.441406 3.578125 -10.953125 C 4.546875 -11.460938 5.640625 -11.71875 6.859375 -11.71875 C 7.960938 -11.71875 8.953125 -11.519531 9.828125 -11.125 C 10.703125 -10.726562 11.421875 -10.160156 11.984375 -9.421875 L 9.546875 -7.25 C 8.835938 -8.144531 8.003906 -8.59375 7.046875 -8.59375 C 6.242188 -8.59375 5.597656 -8.332031 5.109375 -7.8125 C 4.617188 -7.289062 4.375 -6.59375 4.375 -5.71875 C 4.375 -4.851562 4.617188 -4.160156 5.109375 -3.640625 C 5.597656 -3.117188 6.242188 -2.859375 7.046875 -2.859375 C 8.003906 -2.859375 8.835938 -3.304688 9.546875 -4.203125 L 11.984375 -2.03125 C 11.421875 -1.289062 10.703125 -0.722656 9.828125 -0.328125 C 8.953125 0.0664062 7.960938 0.265625 6.859375 0.265625 Z M 6.859375 0.265625 "/></g></g></g><g fill="#ff47ff" fill-opacity="1"><g transform="translate(88.520718, 30.091006)"><g><path d="M 6.9375 0.265625 C 5.707031 0.265625 4.597656 0.0078125 3.609375 -0.5 C 2.628906 -1.019531 1.859375 -1.734375 1.296875 -2.640625 C 0.742188 -3.554688 0.46875 -4.582031 0.46875 -5.71875 C 0.46875 -6.863281 0.742188 -7.890625 1.296875 -8.796875 C 1.859375 -9.710938 2.628906 -10.425781 3.609375 -10.9375 C 4.597656 -11.457031 5.707031 -11.71875 6.9375 -11.71875 C 8.164062 -11.71875 9.269531 -11.457031 10.25 -10.9375 C 11.238281 -10.425781 12.007812 -9.710938 12.5625 -8.796875 C 13.113281 -7.890625 13.390625 -6.863281 13.390625 -5.71875 C 13.390625 -4.582031 13.113281 -3.554688 12.5625 -2.640625 C 12.007812 -1.734375 11.238281 -1.019531 10.25 -0.5 C 9.269531 0.0078125 8.164062 0.265625 6.9375 0.265625 Z M 6.9375 -2.859375 C 7.414062 -2.859375 7.847656 -2.972656 8.234375 -3.203125 C 8.617188 -3.441406 8.925781 -3.773438 9.15625 -4.203125 C 9.382812 -4.640625 9.5 -5.144531 9.5 -5.71875 C 9.5 -6.300781 9.382812 -6.804688 9.15625 -7.234375 C 8.925781 -7.671875 8.617188 -8.003906 8.234375 -8.234375 C 7.847656 -8.472656 7.414062 -8.59375 6.9375 -8.59375 C 6.457031 -8.59375 6.023438 -8.472656 5.640625 -8.234375 C 5.253906 -8.003906 4.945312 -7.671875 4.71875 -7.234375 C 4.488281 -6.804688 4.375 -6.300781 4.375 -5.71875 C 4.375 -5.144531 4.488281 -4.640625 4.71875 -4.203125 C 4.945312 -3.773438 5.253906 -3.441406 5.640625 -3.203125 C 6.023438 -2.972656 6.457031 -2.859375 6.9375 -2.859375 Z M 6.9375 -2.859375 "/></g></g></g><g fill="#ff47ff" fill-opacity="1"><g transform="translate(102.389438, 30.091006)"><g><path d="M 11.15625 0 L 11.125 -5.21875 L 8.640625 -1.03125 L 6.9375 -1.03125 L 4.453125 -5.03125 L 4.453125 0 L 0.9375 0 L 0.9375 -11.453125 L 4.109375 -11.453125 L 7.84375 -5.34375 L 11.46875 -11.453125 L 14.640625 -11.453125 L 14.671875 0 Z M 11.15625 0 "/></g></g></g><g fill="#ff47ff" fill-opacity="1"><g transform="translate(117.991759, 30.091006)"><g><path d="M 0.9375 -11.453125 L 4.796875 -11.453125 L 4.796875 0 L 0.9375 0 Z M 0.9375 -11.453125 "/></g></g></g><g fill="#ff47ff" fill-opacity="1"><g transform="translate(123.715873, 30.091006)"><g><path d="M 12.21875 -11.453125 L 12.21875 0 L 9.046875 0 L 4.6875 -5.203125 L 4.6875 0 L 0.9375 0 L 0.9375 -11.453125 L 4.109375 -11.453125 L 8.453125 -6.25 L 8.453125 -11.453125 Z M 12.21875 -11.453125 "/></g></g></g><g fill="#ff47ff" fill-opacity="1"><g transform="translate(136.864996, 30.091006)"><g><path d="M 8.5 -6.03125 L 11.859375 -6.03125 L 11.859375 -1.1875 C 11.179688 -0.71875 10.394531 -0.359375 9.5 -0.109375 C 8.601562 0.140625 7.726562 0.265625 6.875 0.265625 C 5.644531 0.265625 4.546875 0.0078125 3.578125 -0.5 C 2.609375 -1.007812 1.847656 -1.71875 1.296875 -2.625 C 0.742188 -3.53125 0.46875 -4.5625 0.46875 -5.71875 C 0.46875 -6.875 0.742188 -7.90625 1.296875 -8.8125 C 1.847656 -9.726562 2.617188 -10.441406 3.609375 -10.953125 C 4.597656 -11.460938 5.710938 -11.71875 6.953125 -11.71875 C 8.078125 -11.71875 9.082031 -11.523438 9.96875 -11.140625 C 10.851562 -10.765625 11.59375 -10.21875 12.1875 -9.5 L 9.71875 -7.328125 C 9 -8.171875 8.144531 -8.59375 7.15625 -8.59375 C 6.300781 -8.59375 5.625 -8.332031 5.125 -7.8125 C 4.625 -7.300781 4.375 -6.601562 4.375 -5.71875 C 4.375 -4.863281 4.617188 -4.171875 5.109375 -3.640625 C 5.609375 -3.117188 6.269531 -2.859375 7.09375 -2.859375 C 7.59375 -2.859375 8.0625 -2.953125 8.5 -3.140625 Z M 8.5 -6.03125 "/></g></g></g><g fill="#ffffff" fill-opacity="1"><g transform="translate(149.437468, 30.091006)"><g/></g></g><g fill="#ff47ff" fill-opacity="1"><g transform="translate(154.180939, 30.091006)"><g><path d="M 5.203125 0.265625 C 4.253906 0.265625 3.328125 0.160156 2.421875 -0.046875 C 1.523438 -0.265625 0.789062 -0.554688 0.21875 -0.921875 L 1.453125 -3.734375 C 2.003906 -3.410156 2.613281 -3.15625 3.28125 -2.96875 C 3.957031 -2.78125 4.609375 -2.6875 5.234375 -2.6875 C 5.765625 -2.6875 6.144531 -2.738281 6.375 -2.84375 C 6.601562 -2.945312 6.71875 -3.097656 6.71875 -3.296875 C 6.71875 -3.546875 6.566406 -3.726562 6.265625 -3.84375 C 5.972656 -3.96875 5.484375 -4.097656 4.796875 -4.234375 C 3.910156 -4.421875 3.171875 -4.617188 2.578125 -4.828125 C 1.992188 -5.046875 1.484375 -5.394531 1.046875 -5.875 C 0.609375 -6.363281 0.390625 -7.023438 0.390625 -7.859375 C 0.390625 -8.578125 0.59375 -9.226562 1 -9.8125 C 1.40625 -10.40625 2.007812 -10.867188 2.8125 -11.203125 C 3.613281 -11.546875 4.582031 -11.71875 5.71875 -11.71875 C 6.507812 -11.71875 7.28125 -11.628906 8.03125 -11.453125 C 8.789062 -11.285156 9.460938 -11.039062 10.046875 -10.71875 L 8.890625 -7.921875 C 7.765625 -8.484375 6.695312 -8.765625 5.6875 -8.765625 C 4.695312 -8.765625 4.203125 -8.523438 4.203125 -8.046875 C 4.203125 -7.816406 4.347656 -7.644531 4.640625 -7.53125 C 4.941406 -7.414062 5.429688 -7.296875 6.109375 -7.171875 C 6.972656 -7.003906 7.703125 -6.8125 8.296875 -6.59375 C 8.898438 -6.382812 9.421875 -6.039062 9.859375 -5.5625 C 10.304688 -5.082031 10.53125 -4.425781 10.53125 -3.59375 C 10.53125 -2.875 10.328125 -2.222656 9.921875 -1.640625 C 9.523438 -1.054688 8.925781 -0.59375 8.125 -0.25 C 7.320312 0.09375 6.347656 0.265625 5.203125 0.265625 Z M 5.203125 0.265625 "/></g></g></g><g fill="#ff47ff" fill-opacity="1"><g transform="translate(164.925931, 30.091006)"><g><path d="M 6.9375 0.265625 C 5.707031 0.265625 4.597656 0.0078125 3.609375 -0.5 C 2.628906 -1.019531 1.859375 -1.734375 1.296875 -2.640625 C 0.742188 -3.554688 0.46875 -4.582031 0.46875 -5.71875 C 0.46875 -6.863281 0.742188 -7.890625 1.296875 -8.796875 C 1.859375 -9.710938 2.628906 -10.425781 3.609375 -10.9375 C 4.597656 -11.457031 5.707031 -11.71875 6.9375 -11.71875 C 8.164062 -11.71875 9.269531 -11.457031 10.25 -10.9375 C 11.238281 -10.425781 12.007812 -9.710938 12.5625 -8.796875 C 13.113281 -7.890625 13.390625 -6.863281 13.390625 -5.71875 C 13.390625 -4.582031 13.113281 -3.554688 12.5625 -2.640625 C 12.007812 -1.734375 11.238281 -1.019531 10.25 -0.5 C 9.269531 0.0078125 8.164062 0.265625 6.9375 0.265625 Z M 6.9375 -2.859375 C 7.414062 -2.859375 7.847656 -2.972656 8.234375 -3.203125 C 8.617188 -3.441406 8.925781 -3.773438 9.15625 -4.203125 C 9.382812 -4.640625 9.5 -5.144531 9.5 -5.71875 C 9.5 -6.300781 9.382812 -6.804688 9.15625 -7.234375 C 8.925781 -7.671875 8.617188 -8.003906 8.234375 -8.234375 C 7.847656 -8.472656 7.414062 -8.59375 6.9375 -8.59375 C 6.457031 -8.59375 6.023438 -8.472656 5.640625 -8.234375 C 5.253906 -8.003906 4.945312 -7.671875 4.71875 -7.234375 C 4.488281 -6.804688 4.375 -6.300781 4.375 -5.71875 C 4.375 -5.144531 4.488281 -4.640625 4.71875 -4.203125 C 4.945312 -3.773438 5.253906 -3.441406 5.640625 -3.203125 C 6.023438 -2.972656 6.457031 -2.859375 6.9375 -2.859375 Z M 6.9375 -2.859375 "/></g></g></g><g fill="#ff47ff" fill-opacity="1"><g transform="translate(178.79465, 30.091006)"><g><path d="M 6.9375 0.265625 C 5.707031 0.265625 4.597656 0.0078125 3.609375 -0.5 C 2.628906 -1.019531 1.859375 -1.734375 1.296875 -2.640625 C 0.742188 -3.554688 0.46875 -4.582031 0.46875 -5.71875 C 0.46875 -6.863281 0.742188 -7.890625 1.296875 -8.796875 C 1.859375 -9.710938 2.628906 -10.425781 3.609375 -10.9375 C 4.597656 -11.457031 5.707031 -11.71875 6.9375 -11.71875 C 8.164062 -11.71875 9.269531 -11.457031 10.25 -10.9375 C 11.238281 -10.425781 12.007812 -9.710938 12.5625 -8.796875 C 13.113281 -7.890625 13.390625 -6.863281 13.390625 -5.71875 C 13.390625 -4.582031 13.113281 -3.554688 12.5625 -2.640625 C 12.007812 -1.734375 11.238281 -1.019531 10.25 -0.5 C 9.269531 0.0078125 8.164062 0.265625 6.9375 0.265625 Z M 6.9375 -2.859375 C 7.414062 -2.859375 7.847656 -2.972656 8.234375 -3.203125 C 8.617188 -3.441406 8.925781 -3.773438 9.15625 -4.203125 C 9.382812 -4.640625 9.5 -5.144531 9.5 -5.71875 C 9.5 -6.300781 9.382812 -6.804688 9.15625 -7.234375 C 8.925781 -7.671875 8.617188 -8.003906 8.234375 -8.234375 C 7.847656 -8.472656 7.414062 -8.59375 6.9375 -8.59375 C 6.457031 -8.59375 6.023438 -8.472656 5.640625 -8.234375 C 5.253906 -8.003906 4.945312 -7.671875 4.71875 -7.234375 C 4.488281 -6.804688 4.375 -6.300781 4.375 -5.71875 C 4.375 -5.144531 4.488281 -4.640625 4.71875 -4.203125 C 4.945312 -3.773438 5.253906 -3.441406 5.640625 -3.203125 C 6.023438 -2.972656 6.457031 -2.859375 6.9375 -2.859375 Z M 6.9375 -2.859375 "/></g></g></g><g fill="#ff47ff" fill-opacity="1"><g transform="translate(192.66337, 30.091006)"><g><path d="M 12.21875 -11.453125 L 12.21875 0 L 9.046875 0 L 4.6875 -5.203125 L 4.6875 0 L 0.9375 0 L 0.9375 -11.453125 L 4.109375 -11.453125 L 8.453125 -6.25 L 8.453125 -11.453125 Z M 12.21875 -11.453125 "/></g></g></g></svg>